<svg height="408" width="400" xmlns="http://www.w3.org/2000/svg"><g fill-rule="evenodd" transform="translate(-466.45013 105.20267)"><path d="m567.62197-104.76996h298.82816v302.18446h-298.82816z" fill="#d94f00"/><g fill="#fff"><path d="m737.57611-46.136072h76.56684v76.663778h-76.56684z"/><path d="m644.99667 69.294169v7.524338h13.22183v39.738813h9.06677v-40.019891h12.29406v-7.522671z"/><path d="m638.2198 78.595827v-7.479858c-7.31199-3.319665-15.66838-4.284081-24.33289 0-14.11757 6.304171-14.60316 37.500101-.49632 43.644921 8.07473 4.13874 25.02696 2.18738 26.65723-1.42468v-24.73006h-16.69927v6.523329h7.37846v13.025251c-24.27489 11.73974-28.77646-44.934941 7.49279-29.558903"/><path d="m694.42016 94.696302h8.69159c7.20834.342053 9.05263 13.857848-.29698 13.814448h-8.3947v-13.814448zm0-19.050056h8.69159c7.20834 1.341304 4.60856 12.005042-.29698 12.313204h-8.3947v-12.313204zm-8.98566-7.270301v47.794925h23.90653c12.24614-4.3962 12.73962-23.26428 0-25.266931 11.71887-1.28042 12.30193-22.765718-7.90912-22.818671z"/><path d="m727.57705 81.757219v7.133434c6.40954-1.809407 20.25553-6.775744 18.97958 3.790606-12.20446-.830345-20.52255 1.365505-21.91343 8.951851-2.31694 16.41536 15.25156 17.98028 22.69591 9.94047v3.86722h8.43301v-28.837255c-2.0488-9.229553-15.92526-10.428899-28.19507-4.846326zm7.12492 18.469241c1.88715-2.459484 8.02065-2.355246 12.05407-1.18019v6.28222c-6.614 7.17454-17.41185 3.90219-12.05407-5.10203"/><path d="m773.25892 90.190226c2.19756-2.380621 13.91021-6.855106 15.65373 0v25.397624h9.40081v-26.941681c-2.04713-11.243469-12.70303-13.207228-25.70746-5.638364v-4.235094h-8.8724v36.944709h9.39747l.12798-25.527194z"/><path d="m827.78786 78.517502-12.2625 16.546045 13.04494 20.265713 11.34825-.25597-14.34907-19.497341 12.91538-16.673898-10.697-.384865z"/><path d="m805.34883 66.461219h9.26335v48.868041h-9.26335z"/></g><path d="m484.51486 258.72306v-15.0932h-8.42341l.19153 3.50669h3.88696v8.9569s-2.32483.53458-4.07849.53458c-2.51469 0-5.2964-1.37339-5.2964-10.13989 0-8.57497 3.65825-10.09987 6.74474-10.09987 2.97319 0 6.06194 1.33508 6.06194 1.33508v-3.5833s-2.55525-1.37172-6.06194-1.37172c-4.80185 0-11.08966 1.94348-11.08966 13.91134 0 12.00509 4.7246 13.5368 9.4132 13.5368 3.69655 0 7.8133-1.22639 8.65153-1.49341zm22.25818 1.10692v-20.20145h-4.34492v15.13155s-2.43979 1.75136-4.61139 1.75136c-1.71536 0-2.47864-.72331-2.47864-2.89663v-13.98628h-4.34326v14.673c0 4.45984 2.39978 5.91494 5.64004 5.91494 3.35346 0 6.02138-2.7896 6.02138-2.7896l.5718 2.40311zm20.9231 0v-14.0268c0-5.56513-3.16135-6.55488-6.97286-6.55488-3.46839 0-6.63203 1.10354-6.63203 1.10354v3.54504c.38036-.11357 3.58163-1.06694 5.90705-1.06694 2.09611 0 3.35463.22984 3.35463 2.63015v1.86799h-3.39294c-3.20195 0-7.66012.95203-7.66012 6.47826 0 5.45017 3.35351 6.41013 5.83156 6.41013 3.50669 0 5.33471-2.48486 5.33471-2.48486l.49685 2.09837zm-4.34325-4.53704s-1.79138 1.56213-3.88809 1.56213c-1.56154 0-2.82001-.49514-2.82001-3.27685 0-2.97329 1.59985-3.65829 4.68801-3.7349l2.02009-.0406v5.48788zm20.8865-11.43441v-4.3821s-.95315-.22804-1.94294-.22804c-2.89663 0-4.04185 2.74341-4.04185 2.74341l-.5718-2.36314h-3.42841v20.20145h4.34384v-15.16981s1.10466-1.18186 2.89663-1.18186c1.25789 0 2.74453.38036 2.74453.38036zm16.73194 15.97145v-14.02685c0-5.56508-3.16364-6.55487-6.97511-6.55487-3.46843 0-6.63149 1.10358-6.63149 1.10358v3.54499c.37946-.11356 3.58163-1.06689 5.90818-1.06689 2.09499 0 3.35346.22984 3.35346 2.63015v1.86799h-3.39348c-3.20024 0-7.66013.95203-7.66013 6.47826 0 5.45017 3.35351 6.41008 5.83157 6.41008 3.50673 0 5.33529-2.48481 5.33529-2.48481l.49685 2.09837zm-4.34496-4.53704s-1.79192 1.56213-3.88863 1.56213c-1.56154 0-2.82001-.49519-2.82001-3.2769 0-2.97324 1.60039-3.65824 4.68855-3.73485l2.02009-.0406v5.48793zm27.55458 4.53704v-14.56029c0-4.61311-2.32483-6.02143-5.67833-6.02143-3.61994 0-6.63149 2.70514-6.63149 2.70514l-.76162-2.32487h-3.46838v20.20145h4.34492v-15.0932s2.51528-1.75533 5.06827-1.75533c1.60039 0 2.78338.26724 2.78338 2.36485v14.48368zm16.35172-.38351v-3.46672s-2.43808.68501-3.50673.68501c-.99146 0-1.63982-.18973-1.63982-1.67646v-12.27152h4.11679l.4563-3.08816h-4.57309v-6.09858l-4.07682 1.56321-.26635 4.53537h-3.43178v3.08816h3.43178v12.23321c0 4.34492 2.20991 5.26652 5.02993 5.26652 2.32487 0 4.45988-.77004 4.45988-.77004zm18.25685-19.81785h-4.76516l-3.61994 15.24476-4.49648-15.24476h-4.99504l7.66125 19.85782-.26635 1.11147c-.57179 2.36313-1.41003 3.39177-2.82001 3.39177-1.10525 0-3.58335-.57176-3.58335-.57176v3.39177s2.09671.64842 3.92639.64842c2.40036 0 4.8018-.76162 6.05861-4.95503l6.90017-22.87446zm27.97483-6.47885h-17.30483v3.88696h6.47993v22.79334h4.34497v-22.79334h5.98307zm10.93814 10.70885v-4.3821s-.95315-.22804-1.9446-.22804c-2.89722 0-4.04018 2.74341-4.04018 2.74341l-.5718-2.36314h-3.43008v20.20145h4.34492v-15.16981s1.10525-1.18186 2.89667-1.18186c1.25843 0 2.74507.38036 2.74507.38036zm19.47476 15.97145v-20.20145h-4.34492v15.13151s-2.43808 1.7514-4.61139 1.7514c-1.71477 0-2.47697-.72331-2.47697-2.89663v-13.98628h-4.34492v14.67296c0 4.45988 2.40031 5.91493 5.64003 5.91493 3.35517 0 6.02196-2.78959 6.02196-2.78959l.57289 2.40315zm17.83832-5.83152c0-3.50673-2.02009-4.95674-4.11621-5.75553l-1.94519-.72444c-1.29507-.49519-2.66679-.91543-2.66679-2.59189 0-1.63983 1.25847-2.17161 3.24026-2.17161 1.86632 0 4.68801.83652 4.68801.83652v-3.46838s-2.21163-.87487-4.9567-.87487c-3.88641 0-7.12667 1.63815-7.12667 5.94481 0 3.58164 2.55358 4.87842 4.23005 5.56509l1.79363.72331c1.5249.61011 2.6662 1.02976 2.6662 2.74345 0 2.09837-1.59985 2.43975-3.46784 2.43975-1.60039 0-4.87841-.98975-4.87841-.98975v3.65825s2.74511.8833 5.06994.8833c3.54333 0 7.46972-.84499 7.46972-6.21801zm15.01664 5.44792v-3.46672s-2.43808.68501-3.50503.68501c-.99145 0-1.63982-.18973-1.63982-1.67646v-12.27152h4.11508l.45801-3.08816h-4.57309v-6.09858l-4.07849 1.56321-.26634 4.53537h-3.43007v3.08816h3.43007v12.23321c0 4.34492 2.20996 5.26652 5.03164 5.26652 2.32483 0 4.45817-.77004 4.45817-.77004zm31.4049-7.23988c0-4.57309-2.81997-5.79326-5.48789-6.2501 2.28652-.53462 4.72627-2.05952 4.72627-5.90988 0-5.90647-3.77312-6.89684-10.10154-6.89684h-5.67667v26.6803h5.48852c6.89679 0 11.05131-.68667 11.05131-7.62348zm-5.10654-11.96845c0 3.65883-1.71477 4.26835-5.56509 4.26835h-1.52494v-8.04152h1.37339c3.8098 0 5.71664.45855 5.71664 3.77317zm.76329 11.89183c0 3.96357-2.21163 4.38156-6.25181 4.38156h-1.60151v-8.80309h1.52494c4.04014 0 6.32838.68667 6.32838 4.42153zm23.55329 7.7001v-14.0268c0-5.56513-3.1631-6.55488-6.97512-6.55488-3.46842 0-6.63148 1.10354-6.63148 1.10354v3.54504c.38171-.11357 3.5833-1.06694 5.90817-1.06694 2.09499 0 3.35347.22984 3.35347 2.63015v1.86799h-3.39177c-3.20142 0-7.66125.95203-7.66125 6.47826 0 5.45017 3.35292 6.41013 5.83156 6.41013 3.50669 0 5.33471-2.48486 5.33471-2.48486l.49685 2.09837zm-4.34492-4.53704s-1.79197 1.56213-3.88808 1.56213c-1.56213 0-2.82002-.49514-2.82002-3.27685 0-2.97329 1.59981-3.65829 4.68796-3.7349l2.02014-.0406v5.48788zm27.55625 4.53704v-14.56029c0-4.61307-2.32654-6.02139-5.67946-6.02139-3.62053 0-6.63203 2.7051-6.63203 2.7051l-.76162-2.32487h-3.46843v20.20149h4.34497v-15.09324s2.51523-1.75533 5.06882-1.75533c1.59985 0 2.78283.26724 2.78283 2.36485v14.48372h4.34492zm22.82998 0-6.78471-11.7031 6.0231-8.49835h-5.14656l-5.2581 8.65158 6.21125 11.93636 4.95502-.38667zm-11.81468 0v-27.44359h-4.34492v27.44359zm43.02806-10.21538c0-9.41486-4.41987-10.3663-7.50803-10.3663-2.7434 0-4.45871 1.71306-4.99333 2.36147l-.68501-1.98124h-3.3535v27.44926h4.34325v-7.74462c.30555.19153 1.9835.8833 3.73657.8833 2.7051 0 8.46005-.8833 8.46005-10.60187zm-4.34326 0c0 6.47885-2.28652 7.3188-4.34663 7.3188-1.52323 0-3.20136-.53521-3.50673-.64842v-12.19657c.38171-.38171 2.17336-1.48664 3.96528-1.48664 2.24822 0 3.88808.6467 3.88808 7.01283zm14.215 10.21538v-27.44359h-4.34496v27.44359zm18.67655-.42182v-3.65825s-2.5164.8399-4.27002.8399c-2.32483 0-4.53478-.80159-4.53478-6.7464 0-6.47993 2.51469-7.08833 4.8401-7.08833 1.59985 0 3.9647.76162 3.9647.76162v-3.47009s-1.71648-.79826-4.07849-.79826c-3.23972 0-9.07128.98979-9.07128 10.59506 0 9.52811 5.1832 10.3731 8.68993 10.3731 2.24822 0 4.45984-.80835 4.45984-.80835" fill="#454f52"/><path d="m775.77699 299.04661-1.95758-5.53809c-.46811-1.29507-1.10187-2.47977-2.0105-3.08478 2.1767-.7171 3.69205-2.14966 3.69205-5.18036 0-4.68517-3.08536-5.48171-7.02469-5.48171h-4.65646v19.28494h3.1394v-7.8787l2.0122-.16629c.71543.66081 1.43257 1.98462 1.92717 3.66447l1.29678 4.38043h3.58163zm-3.41714-13.77619c0 2.8375-1.78967 3.38843-5.40064 3.58163v-6.47488h1.18524c2.8375 0 4.2154.35918 4.2154 2.89325zm16.00692 13.41845v-2.64592s-1.92766.63372-3.49881.63372c-2.03924 0-3.55292-1.56943-3.55292-7.27368 0-6.28164 1.90012-7.30072 3.82896-7.30072 1.45955 0 3.22277.60672 3.22277.60672v-2.58963s-1.45956-.63431-3.36135-.63431c-2.53443 0-6.83316.99204-6.83316 9.91794 0 8.95523 3.61034 9.9247 6.55825 9.9247 2.03925 0 3.63626-.63882 3.63626-.63882zm15.67739.35783v-15.42899h-2.45272l-4.27002 1.98516v2.69834l3.58163-1.48772v12.23321zm15.12367-3.47181c0-4.29706-2.97324-5.31722-4.93083-5.31722-1.67984 0-2.78171.66076-2.78171.66076l.19334-4.5173h6.66641l.30194-2.78342h-9.88923l-.2758 9.6977 1.62518.49685s1.45955-1.04779 3.22448-1.04779c1.67984 0 2.72709.57964 2.72709 2.86621 0 1.95641-.90867 2.97491-2.23249 3.64243-1.43198.71547-3.36135.90867-5.15106.99204v2.53218c2.39698-.0505 4.87503-.43894 6.83262-1.40327 2.17669-1.07483 3.69033-2.8983 3.69033-5.81917zm12.78586-7.38351c0-3.55459-2.42402-4.84799-5.59384-4.84799-2.28657 0-4.35285.88158-4.35285.88158v2.53385s2.23244-.79821 4.05145-.79821c1.78966 0 2.75413.66076 2.75413 2.36935 0 2.25836-1.81842 3.47176-3.91179 5.29077l-2.97658 2.58847v2.83745h9.50725l.2749-2.72758h-6.4208l1.76434-1.26807c2.36994-1.70689 4.90379-3.55406 4.90379-6.85962zm13.06072 8.04486c0-2.75467-1.87476-3.77371-3.83122-4.16015 1.65281-.49632 3.38903-1.56943 3.38903-4.13262 0-3.7185-2.94792-4.60013-5.78537-4.60013-2.06633 0-4.3534.71548-4.3534.71548v2.45272s2.25836-.66306 4.24294-.66306c1.62581 0 2.75471.63431 2.75471 2.31582 0 2.20319-1.57001 2.81046-3.16819 2.81046h-1.95642v2.39639h1.92771c1.9305 0 3.63738.5239 3.63738 2.75467 0 1.92884-.93566 2.81042-2.23078 3.36645-1.54238.66076-3.58163.71655-5.20739.79992v2.47977c2.28711-.0563 4.9584-.27581 7.05344-1.21228 2.03753-.9098 3.52756-2.54002 3.52756-5.32344zm12.78414-8.04486c0-3.55459-2.42569-4.84799-5.59384-4.84799-2.28656 0-4.3528.88158-4.3528.88158v2.53385s2.23077-.79821 4.04973-.79821c1.79138 0 2.75413.66076 2.75413 2.36935 0 2.25836-1.81729 3.47176-3.91233 5.29077l-2.97491 2.58847v2.83745h9.50613l.2749-2.72758h-6.41968l1.76322-1.26807c2.36935-1.70689 4.90545-3.55406 4.90545-6.85962zm8.65158 10.85532v-15.42899h-2.45273l-4.27002 1.98516v2.69834l3.57993-1.48772v12.23321z" fill="#454f52"/><path d="m737.57611-46.136072h76.56684v76.663778h-76.56684z" fill="#fff"/></g></svg>